# xmcd
#
# Track frame offsets: 
#        150
#        24390
#        43418
#        66868
#        84025
#        104563
#        131059
#        150232
#        170415
#        186421
#
# Disc length: 2723 seconds
#
# Revision: 2
# Processed by: cddbd v1.5.2PL0 Copyright (c) Steve Scherf et al.
# Submitted via: ExactAudioCopyFreeDBPlugin 1.0
#
DISCID=7f0aa10a
DTITLE=Ronn Matlock - Love City
DYEAR=1979
DGENRE=Funk
TTITLE0=Let Me Dance
TTITLE1=Love City
TTITLE2=I Can't Forget About You
TTITLE3=Feeling Something
TTITLE4=Back Street
TTITLE5=Take Me To The Top (Of Your Mountain)
TTITLE6=You Got The Best Of Me
TTITLE7=Working Man
TTITLE8=Let Me Dance (Mono Single Version)
TTITLE9=You Got the Best of Me (Mono Single Version)
EXTD=
EXTT0=
EXTT1=
EXTT2=
EXTT3=
EXTT4=
EXTT5=
EXTT6=
EXTT7=
EXTT8=
EXTT9=
PLAYORDER=
